<?xml version="1.0" encoding="utf-8"?>
<!-- Generator: Adobe Illustrator 25.1.0, SVG Export Plug-In . SVG Version: 6.00 Build 0)  -->
<svg version="1.1" id="레이어_1" xmlns="http://www.w3.org/2000/svg" xmlns:xlink="http://www.w3.org/1999/xlink" x="0px"
	 y="0px" viewBox="0 0 300 500" style="enable-background:new 0 0 300 500;" xml:space="preserve">
<style type="text/css">
	.st0{fill:#E0E0E0;}
</style>
<g>
	<path id="패스_140" class="st0" d="M16.61,263.71c0-94.7,53.12-128.19,118.95-128.19h28.87c65.83,0,118.95,33.49,118.95,128.19
		v92.39c0,55.43-18.48,72.76-70.45,72.76H87.06c-51.97,0-70.45-17.32-70.45-72.76V263.71L16.61,263.71z M92.83,335.32
		c0,17.32,5.77,25.41,25.41,25.41h63.52c19.63,0,25.41-8.08,25.41-25.41v-78.53c0-34.65-15.01-54.28-47.35-54.28h-19.63
		c-32.34,0-47.35,19.63-47.35,54.28L92.83,335.32L92.83,335.32z"/>
	<circle id="타원_7" class="st0" cx="149.42" cy="54.68" r="50.81"/>
	<rect id="사각형_17" x="81.28" y="409.23" class="st0" width="48.51" height="87.77"/>
	<rect id="사각형_18" x="169.06" y="409.23" class="st0" width="48.51" height="87.77"/>
	<rect id="사각형_19" x="129.79" y="70.85" class="st0" width="39.27" height="98.17"/>
</g>
</svg>
