<?xml version="1.0" encoding="utf-8"?>
<!-- Generator: Adobe Illustrator 25.0.0, SVG Export Plug-In . SVG Version: 6.00 Build 0)  -->
<svg version="1.1" id="레이어_1" xmlns="http://www.w3.org/2000/svg" xmlns:xlink="http://www.w3.org/1999/xlink" x="0px"
	 y="0px" viewBox="0 0 100 100" style="enable-background:new 0 0 100 100;" xml:space="preserve">
<path d="M82.9,17.77H26.2c-4.47,0-8.1,3.63-8.1,8.1v20.25h8.1V33.97l25.92,19.44c0.72,0.54,1.58,0.81,2.43,0.81
	c0.85,0,1.71-0.27,2.43-0.81L82.9,33.97v36.45H50.5v8.1h32.4c4.47,0,8.1-3.63,8.1-8.1V25.87C91,21.4,87.37,17.77,82.9,17.77z
	 M54.55,45.11L28.9,25.87H80.2L54.55,45.11z"/>
<path d="M10,50.17h28.35v8.1H10V50.17z M18.1,62.32h24.3v8.1H18.1V62.32z M30.25,74.47h16.2v8.1h-16.2V74.47z"/>
</svg>
