<svg xmlns="http://www.w3.org/2000/svg" width="273.364" height="41.258" viewBox="0 0 273.364 41.258">
  <g id="rtour" transform="translate(-27.21 -17.96)">
    <path id="패스_133" data-name="패스 133" d="M560.19,54.64h13.019c5.147,0,7.763,3.727,7.763,8.123v.946c0,3.727-1.975,7.067-5.815,7.9l5.925,5.257c.891.778.5,1.975-.583,1.975h-4.2a4.263,4.263,0,0,1-3.7-1.5l-5.006-4.814a2.99,2.99,0,0,1-1.029-2.7V68.184c0-1.169.333-1.5,1.5-1.5h4.145a2.175,2.175,0,0,0,2.366-2.476V62.732a2.134,2.134,0,0,0-2.366-2.421h-7.094Z" transform="translate(-370.285 -25.483)" fill="#9e9e9e"/>
    <path id="패스_134" data-name="패스 134" d="M343.128,77.569c0,1.169-.333,1.5-1.5,1.5h-3.7c-1.169,0-1.5-.333-1.5-1.5V60.545h-5.843c-1.169,0-1.5-.333-1.5-1.474v-2.7c0-1.169.333-1.5,1.5-1.5H348.97c1.142,0,1.474.333,1.474,1.5v2.7c0,1.142-.333,1.474-1.474,1.474h-5.843Z" transform="translate(-209.722 -25.643)" fill="#9e9e9e"/>
    <path id="패스_135" data-name="패스 135" d="M493.558,78.521c-5.534,0-9.988-2.836-9.988-10.766V55.682c0-1.169.333-1.5,1.5-1.5h3.449c1.142,0,1.474.333,1.474,1.5V68.588c0,2.921,1.224,4.255,3.95,4.255h1.67c2.726,0,3.95-1.337,3.95-4.255V55.682c0-1.169.333-1.5,1.5-1.5h3.449c1.142,0,1.474.333,1.474,1.5V67.755c0,7.928-4.451,10.766-9.988,10.766Z" transform="translate(-317.053 -25.164)" fill="#9e9e9e"/>
    <path id="패스_136" data-name="패스 136" d="M27.21,55.21H40.229c5.147,0,7.763,3.727,7.763,8.123v.946c0,3.727-1.975,7.067-5.815,7.9L48.1,77.436c.891.778.5,1.975-.583,1.975h-4.2a4.263,4.263,0,0,1-3.7-1.5l-5.006-4.814a2.99,2.99,0,0,1-1.029-2.7V68.754c0-1.169.333-1.5,1.5-1.5h4.145a2.175,2.175,0,0,0,2.366-2.476V63.3a2.134,2.134,0,0,0-2.366-2.421H32.134Z" transform="translate(0 -25.879)" fill="#9e9e9e"/>
    <path id="패스_137" data-name="패스 137" d="M185.107,73.729h8.26a1.142,1.142,0,0,0,1.252-1.252V71.253A1.142,1.142,0,0,0,193.367,70h-5.342c-1.169,0-1.474-.333-1.474-1.474v-2.7c0-1.169.305-1.5,1.474-1.5h4.841a1.05,1.05,0,0,0,1.084-1.142V62.016a1.092,1.092,0,0,0-1.2-1.142H185.1L180.18,55.2h13.242c4.564,0,6.926,3.086,6.926,6.9v.473a6.973,6.973,0,0,1-1.392,4.2A7.419,7.419,0,0,1,201.014,72v.391c0,3.81-2.366,7.009-6.926,7.009H180.18Z" transform="translate(-106.275 -25.872)" fill="#9e9e9e"/>
    <path id="패스_138" data-name="패스 138" d="M251.82,64.606c0-7.927,4.451-10.766,9.988-10.766h2.448c5.534,0,9.988,2.836,9.988,10.766v7.763c0,4.619-1.5,6.093-5.9,6.093H257.721c-4.368,0-5.9-1.474-5.9-6.093V64.606Zm6.426,6.062c0,1.474.446,2.115,2.115,2.115H265.7c1.67,0,2.115-.641,2.115-2.115V64.048c0-2.921-1.224-4.533-3.95-4.533H262.2c-2.726,0-3.95,1.615-3.95,4.533v6.621Z" transform="translate(-156.046 -24.927)" fill="#9e9e9e"/>
    <path id="패스_139" data-name="패스 139" d="M402.88,64.606c0-7.927,4.451-10.766,9.988-10.766h2.448c5.534,0,9.988,2.836,9.988,10.766v7.763c0,4.619-1.5,6.093-5.9,6.093H408.777c-4.368,0-5.9-1.474-5.9-6.093Zm6.426,6.062c0,1.474.446,2.115,2.115,2.115h5.342c1.67,0,2.115-.641,2.115-2.115V64.048c0-2.921-1.224-4.533-3.95-4.533h-1.67c-2.726,0-3.95,1.615-3.95,4.533v6.621Z" transform="translate(-260.994 -24.927)" fill="#9e9e9e"/>
    <path id="패스_140" data-name="패스 140" d="M102.86,64.606c0-7.927,4.451-10.766,9.988-10.766H115.3c5.534,0,9.988,2.836,9.988,10.766v7.763c0,4.619-1.5,6.093-5.9,6.093H108.761c-4.368,0-5.9-1.474-5.9-6.093V64.606Zm6.426,6.062c0,1.474.446,2.115,2.115,2.115h5.342c1.67,0,2.115-.641,2.115-2.115V64.048c0-2.921-1.224-4.533-3.95-4.533h-1.67c-2.726,0-3.95,1.615-3.95,4.533v6.621Z" transform="translate(-52.557 -24.927)" fill="#9e9e9e"/>
    <circle id="타원_7" data-name="타원 7" cx="4.289" cy="4.289" r="4.289" transform="translate(57.186 17.96)" fill="#9e9e9e"/>
    <rect id="사각형_17" data-name="사각형 17" width="4.087" height="7.341" transform="translate(55.758 51.877)" fill="#9e9e9e"/>
    <rect id="사각형_18" data-name="사각형 18" width="4.087" height="7.341" transform="translate(63.105 51.877)" fill="#9e9e9e"/>
    <rect id="사각형_19" data-name="사각형 19" width="3.269" height="8.251" transform="translate(59.842 23.607)" fill="#9e9e9e"/>
    <text id="로보투어" transform="translate(219.574 46.476)" fill="#9e9e9e" font-size="22" font-family="NanumSquareRoundEB, NanumSquareRound"><tspan x="0" y="0">로보투어</tspan></text>
  </g>
</svg>
