<svg xmlns="http://www.w3.org/2000/svg" width="293.89" height="42.658" viewBox="0 0 293.89 42.658">
  <g id="rtour" transform="translate(-27.21 -17.96)">
    <path id="패스_133" data-name="패스 133" d="M560.19,54.64h13.461c5.321,0,8.026,3.854,8.026,8.4v.978c0,3.854-2.042,7.306-6.012,8.168l6.126,5.435c.922.8.518,2.042-.6,2.042h-4.343a4.408,4.408,0,0,1-3.825-1.553l-5.176-4.977a3.091,3.091,0,0,1-1.064-2.79v-1.7c0-1.209.344-1.553,1.553-1.553h4.286a2.249,2.249,0,0,0,2.446-2.56V63.007a2.207,2.207,0,0,0-2.446-2.5h-7.335Z" transform="translate(-364.766 -25.103)" fill="#231815"/>
    <path id="패스_134" data-name="패스 134" d="M343.6,78.339c0,1.209-.344,1.553-1.553,1.553h-3.825c-1.209,0-1.553-.344-1.553-1.553v-17.6h-6.041c-1.209,0-1.553-.344-1.553-1.524v-2.79c0-1.209.344-1.553,1.553-1.553h19.012c1.18,0,1.524.344,1.524,1.553v2.79c0,1.18-.344,1.524-1.524,1.524H343.6Z" transform="translate(-206.596 -25.261)" fill="#231815"/>
    <path id="패스_135" data-name="패스 135" d="M493.9,79.347c-5.722,0-10.327-2.932-10.327-11.132V55.733c0-1.209.344-1.553,1.553-1.553h3.566c1.18,0,1.524.344,1.524,1.553V69.077c0,3.02,1.266,4.4,4.084,4.4h1.726c2.818,0,4.084-1.382,4.084-4.4V55.733c0-1.209.344-1.553,1.553-1.553h3.566c1.18,0,1.524.344,1.524,1.553V68.215c0,8.2-4.6,11.132-10.327,11.132Z" transform="translate(-312.328 -24.789)" fill="#231815"/>
    <path id="패스_136" data-name="패스 136" d="M27.21,55.21H40.671c5.321,0,8.026,3.854,8.026,8.4v.978c0,3.854-2.042,7.306-6.012,8.168L48.81,78.19c.922.8.518,2.042-.6,2.042H43.862a4.408,4.408,0,0,1-3.825-1.553L34.86,73.7a3.091,3.091,0,0,1-1.064-2.79v-1.7c0-1.209.344-1.553,1.553-1.553h4.286a2.249,2.249,0,0,0,2.446-2.56V63.577a2.207,2.207,0,0,0-2.446-2.5H32.3Z" transform="translate(0 -25.493)" fill="#231815"/>
    <path id="패스_137" data-name="패스 137" d="M185.274,74.358h8.54a1.181,1.181,0,0,0,1.294-1.294V71.8a1.181,1.181,0,0,0-1.294-1.294h-5.523c-1.209,0-1.524-.344-1.524-1.524V66.19c0-1.209.316-1.553,1.524-1.553H193.3a1.085,1.085,0,0,0,1.12-1.18V62.248a1.13,1.13,0,0,0-1.237-1.18h-7.909L180.18,55.2h13.691c4.718,0,7.161,3.191,7.161,7.133v.489a7.209,7.209,0,0,1-1.439,4.343,7.671,7.671,0,0,1,2.127,5.406v.4c0,3.939-2.446,7.246-7.161,7.246H180.18Z" transform="translate(-104.691 -25.487)" fill="#231815"/>
    <path id="패스_138" data-name="패스 138" d="M251.82,64.972c0-8.2,4.6-11.132,10.327-11.132h2.531C270.4,53.84,275,56.772,275,64.972V73c0,4.775-1.553,6.3-6.1,6.3H257.921c-4.516,0-6.1-1.524-6.1-6.3V64.972Zm6.644,6.268c0,1.524.461,2.187,2.187,2.187h5.523c1.726,0,2.187-.663,2.187-2.187V64.394c0-3.02-1.266-4.687-4.084-4.687h-1.726c-2.818,0-4.084,1.67-4.084,4.687V71.24Z" transform="translate(-153.721 -24.556)" fill="#231815"/>
    <path id="패스_139" data-name="패스 139" d="M402.88,64.972c0-8.2,4.6-11.132,10.327-11.132h2.531c5.722,0,10.327,2.932,10.327,11.132V73c0,4.775-1.553,6.3-6.1,6.3h-10.99c-4.516,0-6.1-1.524-6.1-6.3Zm6.644,6.268c0,1.524.461,2.187,2.187,2.187h5.523c1.726,0,2.187-.663,2.187-2.187V64.394c0-3.02-1.266-4.687-4.084-4.687h-1.726c-2.818,0-4.084,1.67-4.084,4.687V71.24Z" transform="translate(-257.104 -24.556)" fill="#231815"/>
    <path id="패스_140" data-name="패스 140" d="M102.86,64.972c0-8.2,4.6-11.132,10.327-11.132h2.531c5.722,0,10.327,2.932,10.327,11.132V73c0,4.775-1.553,6.3-6.1,6.3H108.961c-4.516,0-6.1-1.524-6.1-6.3V64.972ZM109.5,71.24c0,1.524.461,2.187,2.187,2.187h5.523c1.726,0,2.187-.663,2.187-2.187V64.394c0-3.02-1.266-4.687-4.084-4.687h-1.726c-2.818,0-4.084,1.67-4.084,4.687V71.24Z" transform="translate(-51.774 -24.556)" fill="#900000"/>
    <circle id="타원_7" data-name="타원 7" cx="4.434" cy="4.434" r="4.434" transform="translate(58.203 17.96)" fill="#900000"/>
    <rect id="사각형_17" data-name="사각형 17" width="4.226" height="7.59" transform="translate(56.726 53.028)" fill="#900000"/>
    <rect id="사각형_18" data-name="사각형 18" width="4.226" height="7.59" transform="translate(64.323 53.028)" fill="#900000"/>
    <rect id="사각형_19" data-name="사각형 19" width="3.38" height="8.531" transform="translate(60.949 23.799)" fill="#900000"/>
    <text id="로보투어" transform="translate(226.1 49.799)" fill="#717071" font-size="26" font-family="NanumSquareRoundEB, NanumSquareRound"><tspan x="0" y="0">로보투어</tspan></text>
  </g>
</svg>
