<?xml version="1.0" encoding="utf-8"?>
<!-- Generator: Adobe Illustrator 25.1.0, SVG Export Plug-In . SVG Version: 6.00 Build 0)  -->
<svg version="1.1" id="레이어_1" xmlns="http://www.w3.org/2000/svg" xmlns:xlink="http://www.w3.org/1999/xlink" x="0px"
	 y="0px" viewBox="0 0 293.9 42.7" style="enable-background:new 0 0 293.9 42.7;" xml:space="preserve">
<style type="text/css">
	.st0{fill:#231815;}
	.st1{fill:#900000;}
	.st2{enable-background:new    ;}
	.st3{fill:#717071;}
</style>
<path id="패스_133" class="st0" d="M168.2,11.6h13.5c5.3,0,8,3.9,8,8.4v1c0,3.9-2,7.3-6,8.2l6.1,5.4c0.9,0.8,0.5,2-0.6,2h-4.3
	c-1.5,0.1-2.9-0.4-3.8-1.6l-5.2-5c-0.8-0.7-1.2-1.7-1.1-2.8v-1.7c0-1.2,0.3-1.6,1.6-1.6h4.3c1.2,0.1,2.3-0.8,2.5-2
	c0-0.2,0-0.4,0-0.5v-1.5c0.2-1.2-0.7-2.3-1.9-2.5c-0.2,0-0.4,0-0.6,0h-7.3L168.2,11.6z"/>
<path id="패스_134" class="st0" d="M109.8,35.1c0,1.2-0.3,1.6-1.6,1.6h-3.8c-1.2,0-1.6-0.3-1.6-1.6V17.5h-6
	c-1.2,0-1.6-0.3-1.6-1.5v-2.8c0-1.2,0.3-1.6,1.6-1.6h19c1.2,0,1.5,0.3,1.5,1.6V16c0,1.2-0.3,1.5-1.5,1.5h-6V35.1z"/>
<path id="패스_135" class="st0" d="M154.4,36.6c-5.7,0-10.3-2.9-10.3-11.1V13c0-1.2,0.3-1.6,1.6-1.6h3.6c1.2,0,1.5,0.3,1.5,1.6
	v13.3c0,3,1.3,4.4,4.1,4.4h1.7c2.8,0,4.1-1.4,4.1-4.4V13c0-1.2,0.3-1.6,1.6-1.6h3.6c1.2,0,1.5,0.3,1.5,1.6v12.5
	c0,8.2-4.6,11.1-10.3,11.1H154.4z"/>
<path id="패스_136" class="st0" d="M0,11.8h13.5c5.3,0,8,3.9,8,8.4v1c0,3.9-2,7.3-6,8.2l6.1,5.4c0.9,0.8,0.5,2-0.6,2h-4.3
	c-1.5,0.1-2.9-0.4-3.8-1.6l-5.2-5c-0.8-0.7-1.2-1.7-1.1-2.8v-1.7c0-1.2,0.3-1.6,1.6-1.6h4.3c1.2,0.1,2.3-0.8,2.5-2
	c0-0.2,0-0.4,0-0.5v-1.5c0.2-1.2-0.7-2.3-1.9-2.5c-0.2,0-0.4,0-0.6,0H5.1L0,11.8z"/>
<path id="패스_137" class="st0" d="M53.4,30.9h8.5c0.6,0.1,1.2-0.4,1.3-1.1c0-0.1,0-0.2,0-0.2v-1.3c0.1-0.6-0.4-1.2-1.1-1.3
	c-0.1,0-0.2,0-0.2,0h-5.5c-1.2,0-1.5-0.3-1.5-1.5v-2.8c0-1.2,0.3-1.6,1.5-1.6h5c0.6,0,1.1-0.4,1.1-1c0,0,0-0.1,0-0.1v-1.2
	c0-0.6-0.5-1.2-1.1-1.2c-0.1,0-0.1,0-0.2,0h-7.9l-5.1-5.9H62c4.7,0,7.2,3.2,7.2,7.1v0.5c0,1.6-0.5,3.1-1.4,4.3
	c1.4,1.5,2.2,3.4,2.1,5.4v0.4c0,3.9-2.4,7.2-7.2,7.2H48.3L53.4,30.9z"/>
<path id="패스_138" class="st0" d="M70.9,22.5c0-8.2,4.6-11.1,10.3-11.1h2.5c5.7,0,10.3,2.9,10.3,11.1v8c0,4.8-1.6,6.3-6.1,6.3H77
	c-4.5,0-6.1-1.5-6.1-6.3L70.9,22.5L70.9,22.5z M77.5,28.7c0,1.5,0.5,2.2,2.2,2.2h5.5c1.7,0,2.2-0.7,2.2-2.2v-6.8
	c0-3-1.3-4.7-4.1-4.7h-1.7c-2.8,0-4.1,1.7-4.1,4.7L77.5,28.7L77.5,28.7z"/>
<path id="패스_139" class="st0" d="M118.6,22.5c0-8.2,4.6-11.1,10.3-11.1h2.5c5.7,0,10.3,2.9,10.3,11.1v8c0,4.8-1.6,6.3-6.1,6.3
	h-11c-4.5,0-6.1-1.5-6.1-6.3L118.6,22.5z M125.2,28.7c0,1.5,0.5,2.2,2.2,2.2h5.5c1.7,0,2.2-0.7,2.2-2.2v-6.8c0-3-1.3-4.7-4.1-4.7
	h-1.7c-2.8,0-4.1,1.7-4.1,4.7L125.2,28.7L125.2,28.7z"/>
<path id="패스_140" class="st1" d="M23.9,22.5c0-8.2,4.6-11.1,10.3-11.1h2.5c5.7,0,10.3,2.9,10.3,11.1v8c0,4.8-1.6,6.3-6.1,6.3H30
	c-4.5,0-6.1-1.5-6.1-6.3L23.9,22.5L23.9,22.5z M30.5,28.7c0,1.5,0.5,2.2,2.2,2.2h5.5c1.7,0,2.2-0.7,2.2-2.2v-6.8
	c0-3-1.3-4.7-4.1-4.7h-1.7c-2.8,0-4.1,1.7-4.1,4.7L30.5,28.7L30.5,28.7z"/>
<circle id="타원_7" class="st1" cx="35.4" cy="4.4" r="4.4"/>
<rect id="사각형_17" x="29.5" y="35.1" class="st1" width="4.2" height="7.6"/>
<rect id="사각형_18" x="37.1" y="35.1" class="st1" width="4.2" height="7.6"/>
<rect id="사각형_19" x="33.7" y="5.8" class="st1" width="3.4" height="8.5"/>
<g class="st2">
	<path class="st3" d="M222.8,30c0,0.1,0,0.2-0.1,0.3c-0.1,0.1-0.2,0.1-0.3,0.1h-22.6c-0.1,0-0.2,0-0.3-0.1c-0.1-0.1-0.1-0.2-0.1-0.3
		v-1.6c0-0.1,0-0.2,0.1-0.3c0.1-0.1,0.2-0.1,0.3-0.1h9.9v-3.9h-4.7c-0.4,0-0.7,0-0.9-0.1s-0.4-0.1-0.6-0.3c-0.1-0.1-0.2-0.3-0.3-0.5
		c-0.1-0.2-0.1-0.5-0.1-0.8v-4.2c0-0.3,0-0.6,0.1-0.8c0.1-0.2,0.1-0.4,0.3-0.5s0.3-0.2,0.6-0.3s0.6-0.1,0.9-0.1h10.8
		c0.2,0,0.3,0,0.3-0.1s0.1-0.2,0.1-0.4v-2c0-0.2,0-0.3-0.1-0.3c0,0-0.2,0-0.3,0h-12.2c-0.1,0-0.2,0-0.2-0.1
		c-0.1-0.1-0.1-0.2-0.1-0.2v-1.7c0-0.1,0-0.2,0.1-0.2c0.1-0.1,0.1-0.1,0.2-0.1h13.7c0.7,0,1.2,0.1,1.5,0.4c0.3,0.2,0.4,0.7,0.4,1.4
		v4.2c0,0.7-0.1,1.1-0.4,1.4c-0.3,0.2-0.8,0.4-1.5,0.4h-10.8c-0.2,0-0.3,0-0.3,0.1c0,0-0.1,0.1-0.1,0.3v2.1c0,0.2,0,0.3,0.1,0.4
		c0,0,0.2,0.1,0.3,0.1h12.9c0.1,0,0.2,0,0.2,0.1s0.1,0.1,0.1,0.2v1.7c0,0.1,0,0.2-0.1,0.2s-0.2,0.1-0.2,0.1h-6.7V28h9.8
		c0.1,0,0.2,0,0.3,0.1c0.1,0.1,0.1,0.2,0.1,0.3V30z"/>
	<path class="st3" d="M247.2,30c0,0.1,0,0.2-0.1,0.3c-0.1,0.1-0.2,0.1-0.3,0.1h-22.6c-0.1,0-0.2,0-0.3-0.1c-0.1-0.1-0.1-0.2-0.1-0.3
		v-1.7c0-0.1,0-0.2,0.1-0.3c0.1-0.1,0.2-0.1,0.3-0.1h9.8v-4.8h-4.8c-0.8,0-1.3-0.1-1.6-0.4s-0.4-0.7-0.4-1.5v-9.9
		c0-0.1,0-0.2,0.1-0.2c0.1-0.1,0.1-0.1,0.2-0.1h2.3c0.1,0,0.2,0,0.2,0.1s0.1,0.1,0.1,0.2V15h10.5v-3.7c0-0.1,0-0.2,0.1-0.2
		s0.1-0.1,0.2-0.1h2.3c0.1,0,0.2,0,0.2,0.1s0.1,0.1,0.1,0.2v10.1c0,0.6-0.1,1-0.4,1.3s-0.8,0.4-1.5,0.4H237v4.8h9.8
		c0.1,0,0.2,0,0.3,0.1c0.1,0.1,0.1,0.2,0.1,0.3V30z M240.7,17.5h-10.5v2.8c0,0.3,0.2,0.4,0.5,0.4h9.5c0.3,0,0.5-0.1,0.5-0.4V17.5z"
		/>
	<path class="st3" d="M271.7,26.2c0,0.1,0,0.2-0.1,0.3c-0.1,0.1-0.2,0.1-0.3,0.1h-9.8v7.5c0,0.2-0.1,0.4-0.4,0.4h-2.3
		c-0.2,0-0.4-0.1-0.4-0.4v-7.5h-9.9c-0.1,0-0.2,0-0.3-0.1c-0.1-0.1-0.1-0.2-0.1-0.3v-1.7c0-0.3,0.1-0.4,0.4-0.4h22.6
		c0.1,0,0.2,0,0.3,0.1s0.1,0.2,0.1,0.3V26.2z M268.4,21.4c0,0.1,0,0.2-0.1,0.3c-0.1,0.1-0.1,0.1-0.2,0.1h-14.7
		c-0.7,0-1.2-0.2-1.5-0.5s-0.4-0.8-0.4-1.4v-7.9c0-0.7,0.1-1.1,0.4-1.3c0.3-0.2,0.8-0.4,1.4-0.4h14.4c0.2,0,0.4,0.1,0.4,0.3v1.7
		c0,0.2-0.1,0.4-0.4,0.4H255c-0.3,0-0.5,0.1-0.5,0.4V15h13c0.1,0,0.2,0,0.2,0.1c0.1,0.1,0.1,0.2,0.1,0.3v1.6c0,0.1,0,0.2-0.1,0.2
		c-0.1,0.1-0.2,0.1-0.2,0.1h-13v1.6c0,0.4,0.2,0.6,0.5,0.6h13c0.1,0,0.2,0,0.3,0.1c0.1,0,0.1,0.1,0.1,0.3V21.4z"/>
	<path class="st3" d="M280.6,28.7c-1,0-1.9-0.2-2.7-0.6c-0.8-0.4-1.5-1-2-1.8s-1-1.7-1.3-2.7c-0.3-1.1-0.4-2.2-0.4-3.5
		c0-1.3,0.1-2.5,0.4-3.5c0.3-1.1,0.7-2,1.3-2.7s1.2-1.3,2-1.7c0.8-0.4,1.7-0.6,2.7-0.6c0.9,0,1.8,0.2,2.5,0.5
		c0.7,0.3,1.4,0.8,1.9,1.5s1,1.4,1.3,2.3c0.3,0.9,0.5,1.9,0.6,3h3.9v-8.5c0-0.2,0.1-0.3,0.3-0.3h2.3c0.2,0,0.3,0.1,0.3,0.3v24
		c0,0.2-0.1,0.3-0.3,0.3h-2.3c-0.2,0-0.3-0.1-0.3-0.3v-13H287c-0.1,1.1-0.3,2.1-0.6,3.1c-0.3,0.9-0.8,1.7-1.3,2.3s-1.2,1.1-1.9,1.5
		C282.3,28.5,281.5,28.7,280.6,28.7z M284.1,20.1c0-0.8-0.1-1.6-0.2-2.3c-0.2-0.7-0.4-1.3-0.7-1.9c-0.3-0.5-0.7-1-1.1-1.3
		c-0.4-0.3-0.9-0.5-1.5-0.5c-0.5,0-1,0.2-1.4,0.5c-0.4,0.3-0.8,0.8-1.1,1.3c-0.3,0.5-0.5,1.2-0.7,1.9c-0.2,0.7-0.2,1.5-0.2,2.3
		c0,0.8,0.1,1.5,0.2,2.2c0.2,0.7,0.4,1.4,0.7,1.9s0.7,1,1.1,1.3c0.4,0.3,0.9,0.5,1.4,0.5c0.6,0,1-0.2,1.5-0.5
		c0.4-0.3,0.8-0.8,1.1-1.3s0.5-1.2,0.7-1.9C284,21.6,284.1,20.8,284.1,20.1z"/>
</g>
</svg>
